<?xml version="1.0" standalone="no"?>
<!DOCTYPE svg PUBLIC "-//W3C//DTD SVG 20010904//EN"
 "http://www.w3.org/TR/2001/REC-SVG-20010904/DTD/svg10.dtd">
<svg version="1.0" xmlns="http://www.w3.org/2000/svg"
 width="600.000000pt" height="800.000000pt" viewBox="0 0 600.000000 800.000000"
 preserveAspectRatio="xMidYMid meet">

<g transform="translate(0.000000,800.000000) scale(0.100000,-0.100000)"
fill="#000000" stroke="none">
<path d="M2075 5873 c-4 -13 -11 -20 -16 -17 -5 3 -12 -2 -15 -10 -3 -9 -10
-13 -15 -10 -5 3 -9 0 -9 -7 0 -8 -6 -6 -18 4 -26 24 -30 21 -28 -13 1 -20 -1
-27 -8 -20 -15 15 -49 13 -40 -2 5 -8 0 -7 -11 2 -17 14 -17 13 -10 -10 l7
-25 -26 24 c-15 14 -26 19 -26 12 0 -8 -6 -11 -16 -7 -10 4 -13 2 -8 -6 5 -7
0 -9 -14 -6 -13 4 -20 2 -16 -3 3 -6 -6 -8 -23 -4 -15 3 -22 2 -15 -1 25 -12
11 -22 -19 -14 -16 5 -36 7 -44 4 -7 -3 -16 0 -20 5 -3 6 -10 9 -14 7 -12 -8
-101 -17 -149 -16 -28 1 -42 -3 -37 -9 4 -7 -7 -11 -31 -11 -31 0 -36 -3 -31
-20 3 -13 0 -20 -9 -20 -8 0 -14 -6 -14 -13 0 -7 -11 -23 -25 -35 -14 -12 -25
-26 -25 -31 0 -5 -9 -12 -19 -16 -11 -3 -26 -20 -34 -38 -9 -18 -46 -69 -84
-114 -92 -111 -113 -140 -113 -150 0 -5 -20 -32 -45 -59 -25 -27 -45 -52 -45
-56 0 -4 -22 -41 -50 -82 -27 -41 -50 -79 -50 -84 0 -15 -31 -75 -57 -109 -30
-41 -40 -117 -24 -186 9 -38 10 -95 3 -217 -9 -159 -9 -166 11 -187 15 -17 27
-21 46 -17 70 16 124 147 142 347 6 67 12 123 14 125 1 2 9 -3 16 -11 8 -7 28
-17 44 -21 84 -20 105 -28 105 -37 0 -6 -4 -7 -10 -4 -5 3 -10 1 -10 -4 0 -6
5 -11 11 -11 5 0 7 -4 4 -10 -3 -5 0 -10 8 -10 16 0 68 -56 60 -64 -4 -3 2 -6
13 -6 13 -1 9 -5 -13 -15 -18 -8 -33 -18 -33 -22 0 -5 21 -14 46 -21 34 -9 44
-16 40 -27 -3 -9 1 -15 10 -15 8 0 12 -4 9 -10 -3 -5 0 -10 8 -10 7 0 29 -17
48 -37 30 -33 35 -45 36 -93 0 -30 -4 -63 -9 -73 -6 -12 -6 -23 3 -33 9 -11 9
-14 0 -14 -7 0 -9 -4 -6 -10 3 -5 2 -18 -3 -27 -19 -35 -31 -271 -16 -295 3
-4 1 -8 -4 -8 -5 0 -12 -9 -15 -20 -3 -13 0 -20 9 -20 13 0 15 -24 2 -45 -8
-14 2 -75 13 -75 12 0 11 -28 -1 -32 -6 -2 -3 -30 6 -73 16 -68 19 -79 42
-137 8 -20 8 -28 -1 -31 -9 -3 -9 -7 -1 -18 6 -8 10 -24 9 -36 -1 -13 2 -23 8
-23 5 0 7 -6 4 -12 -2 -7 4 -24 13 -38 10 -14 16 -35 14 -47 -2 -14 1 -22 8
-20 6 1 16 -13 21 -30 5 -18 14 -33 19 -33 5 0 6 -5 3 -10 -4 -6 4 -20 17 -31
15 -13 18 -19 8 -18 -29 3 -41 -1 -35 -11 3 -5 15 -10 25 -10 10 0 22 -4 25
-10 4 -6 -1 -7 -12 -3 -15 6 -16 4 -5 -9 11 -14 10 -17 -8 -23 -14 -4 -19 -12
-16 -22 3 -8 -3 -29 -15 -46 l-21 -32 26 28 c21 22 30 26 43 18 17 -10 17 -10
0 -11 -10 0 -15 -5 -12 -10 4 -6 1 -19 -7 -28 -12 -15 -11 -16 4 -4 23 18 43
6 23 -14 -22 -22 -19 -32 15 -49 31 -16 39 -27 18 -24 -7 1 -22 0 -33 -1 -14
-1 -16 -3 -6 -7 29 -11 61 -52 58 -74 -1 -12 4 -24 12 -27 9 -3 11 0 6 8 -6
10 -4 12 9 7 10 -4 20 -7 23 -7 2 0 -3 -7 -11 -16 -22 -22 -21 -84 1 -84 9 0
13 -3 10 -7 -4 -3 -2 -12 4 -19 8 -10 3 -17 -20 -29 -17 -8 -31 -21 -31 -28 1
-34 65 -73 101 -62 11 4 19 2 19 -4 0 -6 -5 -11 -12 -11 -6 0 -22 -9 -34 -21
-23 -22 -22 -59 2 -59 8 0 14 -9 14 -21 0 -15 4 -19 16 -15 8 3 26 3 40 0 19
-5 22 -9 14 -24 -16 -30 -12 -38 20 -45 17 -4 35 -15 40 -25 6 -10 22 -21 37
-23 27 -4 27 -4 6 -12 -29 -9 -30 -25 -2 -32 14 -4 19 -12 16 -24 -7 -25 18
-25 50 1 30 23 34 22 27 -7 -3 -11 -18 -26 -32 -33 -24 -12 -25 -14 -7 -18 23
-5 45 -31 38 -47 -2 -7 5 -16 17 -21 18 -8 19 -11 6 -36 -16 -30 -6 -47 14
-23 7 8 19 15 27 15 8 0 23 10 34 23 19 22 19 22 3 -16 -8 -22 -13 -44 -10
-50 3 -9 5 -8 5 1 1 6 8 12 17 12 11 0 14 -6 9 -21 -5 -15 -1 -25 14 -35 11
-8 18 -21 14 -29 -3 -10 4 -19 24 -26 24 -8 29 -15 26 -33 -4 -19 1 -26 19
-31 12 -4 34 -18 47 -31 13 -13 29 -24 35 -24 6 0 17 -14 23 -31 7 -17 21 -33
31 -36 18 -4 33 -25 46 -65 3 -10 15 -18 27 -18 15 0 19 -5 15 -15 -3 -8 -2
-15 3 -15 5 0 14 -14 21 -31 8 -18 18 -28 26 -25 8 3 14 0 14 -8 0 -14 41 -56
56 -56 5 0 25 -34 44 -76 27 -61 35 -71 41 -56 8 22 42 37 59 27 5 -3 14 -23
20 -43 5 -21 17 -46 26 -57 15 -19 15 -19 10 13 -6 35 7 42 45 22 13 -8 19 -7
19 0 0 6 27 -17 60 -52 37 -39 60 -57 60 -47 0 9 -11 24 -25 33 -14 9 -25 24
-25 32 0 23 42 -5 129 -88 49 -48 73 -78 80 -105 7 -25 20 -44 40 -55 36 -20
95 -133 139 -264 26 -76 75 -332 97 -499 3 -27 15 -101 27 -162 l20 -113 130
0 130 0 -6 33 c-5 29 -8 64 -21 217 -14 166 -17 365 -7 451 7 52 14 130 17
174 4 44 13 106 21 138 8 32 14 72 14 88 0 43 23 92 53 112 38 25 52 22 33 -8
-20 -30 -20 -36 -1 -29 8 4 22 3 31 0 15 -6 15 -8 -2 -27 -10 -11 -24 -17 -31
-15 -21 8 -26 -14 -7 -29 18 -13 18 -14 2 -15 -10 0 -18 -6 -18 -12 0 -7 -3
-24 -7 -36 -5 -22 -3 -24 33 -20 l39 3 7 -140 c5 -77 6 -148 4 -157 -2 -9 2
-19 10 -22 8 -3 14 -2 15 2 0 4 2 68 3 142 2 74 4 136 6 138 1 1 3 7 4 14 1
15 23 22 31 9 3 -6 2 -11 -2 -11 -5 0 -9 -16 -10 -35 -1 -25 5 -39 20 -50 21
-15 22 -14 33 22 l12 38 11 -28 c6 -16 14 -26 18 -24 5 3 7 -24 6 -59 -2 -49
1 -64 11 -64 8 0 17 -13 21 -30 4 -16 11 -32 16 -35 12 -8 12 -35 -1 -35 -5 0
-10 9 -10 20 0 11 -4 20 -8 20 -5 0 -14 10 -21 23 -9 16 -10 17 -5 2 4 -11 9
-30 11 -43 3 -12 10 -22 15 -22 6 0 7 -11 4 -24 -4 -16 -1 -26 8 -29 10 -4 12
0 9 14 -3 10 0 19 6 19 6 0 11 -4 11 -10 0 -5 7 -10 16 -10 13 0 15 -6 9 -27
-11 -41 -10 -92 2 -104 7 -7 12 -4 16 10 3 12 1 19 -4 15 -5 -3 -9 9 -9 25 0
17 4 31 9 31 5 0 17 20 27 45 9 25 20 45 25 45 4 0 14 -13 22 -29 12 -25 12
-29 1 -24 -8 3 -14 -1 -14 -8 0 -7 3 -9 6 -6 10 10 44 -12 44 -28 0 -8 5 -15
11 -15 6 0 9 9 6 20 -3 11 -1 18 4 14 5 -3 9 -14 9 -25 0 -10 5 -19 11 -19 6
0 9 -7 6 -15 -4 -8 -2 -17 4 -21 6 -3 8 -13 5 -21 -3 -8 0 -21 8 -29 8 -7 12
-22 9 -33 -3 -10 1 -22 8 -26 9 -6 11 1 6 31 -4 22 -2 46 4 54 9 13 10 12 5
-2 -3 -10 -1 -18 4 -18 19 0 50 -35 50 -57 0 -16 6 -23 20 -23 18 0 19 -3 10
-21 -7 -11 -10 -23 -7 -25 2 -3 12 11 21 31 20 41 30 47 16 9 -12 -32 -12 -34
0 -34 6 0 10 7 10 15 0 8 8 15 18 16 10 0 12 3 5 6 -7 2 -13 10 -13 16 0 6 8
3 17 -6 12 -11 17 -32 17 -58 l-1 -41 18 39 c17 34 19 35 15 10 -2 -16 3 -42
11 -58 14 -28 16 -29 29 -12 7 10 14 24 14 31 0 6 5 12 11 12 6 0 9 -6 6 -13
-12 -31 39 -40 57 -9 6 11 10 12 16 2 4 -7 0 -20 -12 -32 -21 -21 -17 -38 4
-21 7 6 27 10 43 9 33 -1 60 18 52 38 -3 7 -36 31 -74 54 -37 22 -101 73 -142
112 -40 38 -79 70 -86 70 -7 0 -19 14 -26 32 -14 33 -63 113 -99 160 -11 14
-20 33 -20 41 0 8 -6 20 -14 26 -8 6 -17 31 -20 55 -4 23 -16 59 -26 79 -11
20 -20 43 -20 50 0 21 -74 87 -97 87 -32 0 -53 10 -53 26 0 7 -37 32 -82 55
-152 76 -168 88 -168 121 0 31 16 68 34 80 6 4 21 -2 33 -14 26 -25 32 -6 8
26 -13 17 -12 21 3 32 12 10 14 16 5 22 -14 9 -8 18 26 47 l24 20 -7 -22 c-10
-31 8 -29 32 4 17 24 25 26 78 24 32 -1 61 -7 65 -13 12 -19 112 43 124 76 7
22 7 30 -2 33 -18 6 -16 16 7 43 16 18 17 25 8 32 -10 6 -10 8 1 8 8 0 11 3 8
6 -3 4 -1 16 5 28 7 11 11 24 10 29 -1 4 9 30 23 58 13 29 22 55 20 59 -7 12
21 73 43 93 13 12 18 26 14 43 -3 17 3 36 17 55 12 16 19 34 15 40 -3 6 3 24
15 40 22 29 28 55 11 44 -15 -9 -12 1 10 42 21 40 29 83 10 53 -12 -19 -13 -6
-1 18 21 42 45 130 43 160 -2 21 3 34 12 38 8 3 17 17 21 32 4 15 12 34 19 42
33 38 55 176 37 224 -8 19 -8 32 -2 40 6 7 12 27 14 46 2 19 14 55 26 79 l23
44 -32 28 c-17 16 -39 29 -49 29 -10 0 -26 11 -35 25 -15 22 -15 25 1 34 14 7
15 12 5 24 -10 12 -10 16 0 20 11 4 10 6 0 6 -7 1 -10 6 -7 11 4 6 1 18 -7 27
-10 13 -10 17 0 20 6 3 12 16 12 29 0 18 6 24 23 25 21 1 21 1 -3 9 l-25 8 32
12 32 12 -27 24 -27 24 26 23 c31 27 44 66 23 74 -22 8 -17 22 6 16 11 -3 20
0 20 6 0 6 10 11 23 11 18 0 19 2 7 10 -8 5 -26 10 -40 10 -25 1 -25 1 -2 10
26 11 29 22 5 18 -10 -1 -24 1 -30 5 -8 5 -13 4 -13 -2 0 -6 -4 -11 -9 -11 -4
0 -4 19 1 43 5 23 9 50 9 60 0 9 5 15 11 11 5 -4 7 -20 4 -38 -5 -26 -4 -28 7
-15 6 8 20 18 29 22 12 4 15 12 11 24 -6 16 -5 16 10 4 15 -12 17 -12 11 3 -3
9 -16 16 -28 17 l-21 0 22 11 c12 6 24 17 27 24 4 11 -3 14 -28 11 -28 -3 -35
0 -40 16 -3 11 0 29 5 39 6 11 8 26 5 34 -3 8 -1 14 5 14 6 0 18 8 27 17 16
15 15 16 -11 9 -20 -5 -27 -3 -22 4 4 6 8 21 9 33 8 65 19 107 28 107 7 0 7 4
0 13 -12 15 -21 87 -10 87 4 0 5 14 3 30 -2 17 0 30 3 30 4 0 7 18 7 39 0 33
7 46 43 80 31 31 50 41 75 41 29 1 31 2 14 14 -15 12 -16 18 -7 35 6 12 17 21
26 21 8 0 14 6 13 13 -1 6 3 25 9 40 15 36 15 37 -2 37 -25 0 -5 40 23 46 14
3 36 9 48 14 25 10 31 5 70 -68 16 -28 45 -69 66 -91 33 -36 37 -45 37 -95 0
-30 4 -56 9 -58 5 -1 16 -52 25 -112 18 -123 44 -191 75 -201 29 -9 47 7 78
69 14 28 51 87 83 131 141 196 145 227 48 385 -129 211 -143 234 -169 264 -46
55 -109 154 -151 238 -42 82 -116 200 -130 206 -5 2 -8 9 -8 17 0 21 -48 100
-92 149 -40 47 -174 124 -242 140 -17 4 -42 16 -56 26 -14 10 -38 22 -53 25
-15 4 -27 13 -27 20 0 10 -10 12 -35 8 -31 -5 -34 -3 -30 15 3 16 0 19 -13 15
-15 -6 -16 -5 -2 12 14 17 13 18 -4 12 -16 -6 -17 -5 -6 8 16 20 6 19 -25 -1
-26 -17 -34 -7 -13 14 6 6 12 21 13 32 2 18 -3 17 -33 -12 -30 -29 -33 -30
-27 -11 5 19 3 22 -11 16 -14 -5 -16 -3 -10 12 7 18 6 18 -13 1 -18 -17 -20
-17 -30 1 -9 17 -11 17 -26 -2 -15 -19 -16 -16 -10 39 7 61 -6 71 -26 19 -5
-13 -14 -21 -20 -18 -6 4 -13 -2 -16 -14 -6 -24 -28 -28 -36 -7 -7 18 -53 26
-67 12 -8 -8 -13 -7 -20 3 -6 11 -12 12 -22 3 -8 -6 -26 -13 -42 -16 -16 -3
-30 -7 -33 -10 -6 -6 -77 15 -83 25 -3 5 -15 10 -25 12 -11 1 -25 6 -32 10
-33 21 -484 43 -544 27 -22 -6 -44 -8 -50 -5 -5 4 -49 8 -97 10 -118 5 -164
10 -184 19 -9 4 -26 3 -37 -3 -11 -6 -44 -11 -73 -11 -50 1 -177 -6 -188 -10
-11 -4 -56 3 -72 11 -10 6 -27 5 -45 -2 -15 -6 -43 -11 -61 -11 -17 0 -34 -4
-37 -8 -11 -18 -91 13 -117 46 -10 12 -27 24 -39 27 -16 4 -19 3 -10 -6 15
-15 14 -32 -1 -20 -7 6 -21 13 -32 17 -14 5 -17 2 -12 -9 3 -9 2 -13 -4 -10
-6 3 -10 1 -10 -6 0 -25 -39 24 -43 55 -4 28 -5 29 -12 9z m1978 -780 c-7 -2
-19 -2 -25 0 -7 3 -2 5 12 5 14 0 19 -2 13 -5z m926 -87 c-2 -2 -13 8 -23 22
l-19 27 24 -22 c12 -12 21 -24 18 -27z m-1247 -88 c-7 -7 -12 -8 -12 -2 0 6 3
14 7 17 3 4 9 5 12 2 2 -3 -1 -11 -7 -17z m136 -65 c-10 -2 -28 -2 -40 0 -13
2 -5 4 17 4 22 1 32 -1 23 -4z m-1850 -10 c-10 -2 -26 -2 -35 0 -10 3 -2 5 17
5 19 0 27 -2 18 -5z m1947 -13 c-11 -5 -40 -8 -65 -8 l-45 1 50 7 c72 10 83
10 60 0z m-1947 -24 c3 -3 -9 -6 -26 -6 -17 0 -33 4 -37 10 -6 9 53 6 63 -4z
m-78 0 c0 -2 -7 -6 -15 -10 -8 -3 -15 -1 -15 4 0 6 7 10 15 10 8 0 15 -2 15
-4z m-60 -20 c0 -2 -9 -6 -20 -9 -11 -3 -20 -1 -20 4 0 5 9 9 20 9 11 0 20 -2
20 -4z m2254 -40 c-3 -9 3 -17 16 -21 12 -4 19 -9 17 -11 -6 -6 -76 29 -77 39
0 4 11 7 25 7 17 0 23 -4 19 -14z m83 -92 c-3 -3 -12 -4 -19 -1 -8 3 -5 6 6 6
11 1 17 -2 13 -5z m923 -41 c0 -16 3 -39 7 -53 3 -14 2 -21 -2 -17 -5 4 -10
13 -11 20 -1 7 -6 27 -9 45 -5 21 -4 32 4 32 6 0 11 -12 11 -27z m-1193 -29
c-3 -3 -12 -4 -19 -1 -8 3 -5 6 6 6 11 1 17 -2 13 -5z m314 -11 c13 -16 12
-17 -3 -4 -10 7 -18 15 -18 17 0 8 8 3 21 -13z m-204 -9 c-3 -3 -12 -4 -19 -1
-8 3 -5 6 6 6 11 1 17 -2 13 -5z m-1839 -33 c20 -11 47 -35 59 -53 22 -34 53
-141 53 -183 0 -42 -28 -92 -65 -114 -43 -25 -55 -26 -55 -5 0 8 -4 12 -10 9
-11 -7 -2 80 11 106 5 10 3 21 -4 28 -9 9 -9 14 -1 19 8 5 8 14 1 32 -5 14 -9
38 -8 54 2 23 0 28 -14 22 -9 -3 -21 -6 -26 -6 -5 0 -9 -4 -9 -10 0 -5 7 -7
15 -4 11 5 15 -1 15 -21 0 -25 -2 -26 -31 -20 -17 4 -42 13 -57 21 l-27 14 40
1 40 1 -35 8 c-19 5 -36 13 -38 19 -2 6 -10 11 -19 11 -12 0 -12 3 2 17 14 14
18 14 26 2 5 -8 9 -9 9 -4 0 6 18 11 39 13 29 2 42 -2 50 -15 10 -16 10 -16
11 3 0 12 -9 33 -21 48 -17 22 -18 26 -4 26 9 0 32 -9 53 -19z m2942 -45 c0
-26 -6 -18 -14 19 -5 22 -4 26 4 15 5 -8 10 -24 10 -34z m-1000 24 c0 -5 -2
-10 -4 -10 -3 0 -8 5 -11 10 -3 6 -1 10 4 10 6 0 11 -4 11 -10z m-353 -62
c-29 -39 -37 -72 -44 -190 -4 -73 -8 -88 -21 -88 -27 0 -43 -15 -37 -33 4 -9
13 -13 21 -10 9 3 14 -2 14 -17 0 -20 -2 -21 -17 -9 -33 26 -42 37 -36 43 4 3
-1 6 -10 6 -10 0 -14 -5 -11 -15 12 -31 -13 -14 -46 30 -14 19 -14 20 6 3 27
-23 34 -23 34 2 0 11 -5 20 -11 20 -6 0 -8 9 -4 20 3 11 3 20 -2 20 -12 0 -14
58 -3 65 6 4 10 15 10 26 0 11 6 22 14 25 8 3 13 11 10 18 -7 18 81 94 120
105 17 5 32 10 34 10 2 1 -8 -14 -21 -31z m-159 -3 c0 -14 -4 -25 -9 -25 -10
0 -11 12 -3 34 9 22 12 20 12 -9z m-1814 -16 c-11 -22 -15 -51 -12 -100 2 -45
0 -65 -7 -58 -17 17 -12 132 8 162 24 37 31 34 11 -4z m223 -6 c-1 -14 -8 -28
-15 -31 -13 -4 -16 16 -6 42 10 25 23 18 21 -11z m1825 -23 c-2 -12 0 -12 11
1 11 15 16 15 40 3 15 -8 27 -21 27 -29 0 -20 -26 -23 -82 -9 -22 5 -27 2 -30
-16 -4 -27 -33 -49 -46 -35 -11 12 -3 87 8 80 4 -3 13 2 20 11 16 19 56 14 52
-6z m258 -58 c19 -43 24 -116 9 -145 -14 -26 -14 -25 -15 21 -1 54 -22 131
-41 150 -19 20 -16 23 11 11 13 -6 29 -23 36 -37z m-145 7 c-4 -5 -1 -9 6 -9
7 0 9 -3 6 -7 -4 -3 -2 -12 4 -20 9 -10 7 -13 -9 -13 -13 0 -22 9 -26 25 -7
29 0 48 15 39 5 -3 7 -10 4 -15z m-2230 -60 c4 -29 3 -37 -3 -24 -13 29 -23
104 -12 84 5 -9 12 -36 15 -60z m419 57 c-8 -20 -33 -28 -52 -16 -14 8 -12 9
11 10 15 0 27 5 27 10 0 6 4 10 10 10 5 0 7 -6 4 -14z m1776 -28 c0 -14 -5
-18 -16 -14 -9 3 -21 6 -27 6 -7 0 -17 8 -23 18 -10 16 -7 17 27 14 31 -3 39
-8 39 -24z m299 -37 c15 -15 19 -32 18 -75 -1 -31 1 -57 6 -59 4 -1 -8 -10
-28 -19 -34 -15 -35 -15 -30 3 4 11 2 19 -4 19 -6 0 -11 -5 -11 -11 0 -5 -5
-7 -11 -3 -14 9 10 -38 25 -48 7 -5 6 -8 -3 -8 -8 0 -19 7 -26 17 -11 15 -13
15 -31 -1 -74 -68 -155 -107 -226 -109 -21 -1 -40 -8 -43 -14 -5 -15 -75 -18
-75 -4 0 5 -15 19 -32 31 -28 18 -29 20 -8 14 42 -12 189 -6 247 11 64 19 148
93 158 140 14 66 37 135 46 135 5 0 18 -9 28 -19z m-299 -16 c-7 -8 -22 -14
-34 -14 -20 2 -20 2 2 6 12 2 22 9 22 14 0 5 5 9 11 9 8 0 8 -5 -1 -15z m46
-12 c-10 -10 -19 5 -10 18 6 11 8 11 12 0 2 -7 1 -15 -2 -18z m-448 5 c-5 -15
-35 -19 -35 -4 0 7 9 13 19 13 11 1 18 -3 16 -9z m35 -83 c-3 -9 -8 -14 -10
-11 -3 3 -2 9 2 15 9 16 15 13 8 -4z m177 -34 c0 -5 -9 -7 -20 -4 -11 3 -20 7
-20 9 0 2 9 4 20 4 11 0 20 -4 20 -9z m-125 -41 c12 0 13 -3 3 -19 -11 -18
-12 -18 -25 6 -7 14 -13 33 -12 42 0 11 3 9 9 -6 5 -13 16 -23 25 -23z m237
-68 c47 -9 49 -10 17 -11 -49 -1 -100 9 -94 20 3 4 -8 15 -25 24 -31 16 -40
40 -18 47 7 3 25 -12 40 -33 23 -31 35 -39 80 -47z m398 84 c0 -3 -4 -8 -10
-11 -5 -3 -10 -1 -10 4 0 6 5 11 10 11 6 0 10 -2 10 -4z m-580 -85 c0 -5 6
-11 13 -14 6 -2 9 -8 4 -13 -9 -9 -67 57 -60 69 6 10 43 -27 43 -42z m-398
-61 c-2 -16 -9 -30 -16 -30 -6 -1 0 -7 14 -15 28 -16 19 -20 -11 -5 -14 8 -19
7 -19 -2 0 -8 -5 -7 -16 4 -18 18 -10 42 12 34 21 -8 29 15 8 27 -17 10 -17
11 1 17 28 10 32 5 27 -30z m-335 1 c0 -11 -5 -18 -9 -15 -4 3 -5 11 -1 19 7
21 12 19 10 -4z m-37 -81 c0 -5 -2 -10 -4 -10 -3 0 -8 5 -11 10 -3 6 -1 10 4
10 6 0 11 -4 11 -10z m-10 -50 c0 -5 -5 -10 -11 -10 -5 0 -7 5 -4 10 3 6 8 10
11 10 2 0 4 -4 4 -10z m1648 -345 c0 -15 -5 -24 -12 -22 -18 6 -15 47 3 47 5
0 9 -11 9 -25z m32 -39 c0 -2 -7 -7 -16 -10 -8 -3 -12 -2 -9 4 6 10 25 14 25
6z m-52 -28 c-1 -13 -5 -28 -10 -34 -5 -7 -7 -16 -6 -20 2 -5 -1 -10 -7 -11
-5 -1 -9 8 -7 20 1 12 3 29 4 37 1 12 15 29 25 30 1 0 1 -10 1 -22z m-1638
-102 c0 -2 -7 -7 -16 -10 -8 -3 -12 -2 -9 4 6 10 25 14 25 6z m70 -26 c0 -5
-5 -10 -11 -10 -5 0 -7 5 -4 10 3 6 8 10 11 10 2 0 4 -4 4 -10z m95 -10 c3 -5
1 -10 -4 -10 -6 0 -11 5 -11 10 0 6 2 10 4 10 3 0 8 -4 11 -10z m1400 -370 c3
-5 1 -10 -4 -10 -6 0 -11 5 -11 10 0 6 2 10 4 10 3 0 8 -4 11 -10z m37 -9 c16
-18 15 -20 -3 -18 -11 1 -19 9 -19 19 0 23 2 22 22 -1z m8 -73 c0 -5 -4 -8
-10 -8 -5 0 -10 10 -10 23 0 18 2 19 10 7 5 -8 10 -18 10 -22z m-1720 -3 c0
-8 -2 -15 -4 -15 -2 0 -6 7 -10 15 -3 8 -1 15 4 15 6 0 10 -7 10 -15z m1705
-50 c5 -28 5 -28 -6 -7 -16 30 -31 28 -19 -3 13 -35 5 -31 -14 7 -20 38 -20
39 -1 32 9 -4 15 -1 15 7 0 23 18 -4 25 -36z m-1241 19 c3 -8 2 -12 -4 -9 -6
3 -10 10 -10 16 0 14 7 11 14 -7z m1193 -116 c-3 -8 -6 -5 -6 6 -1 11 2 17 5
13 3 -3 4 -12 1 -19z m63 2 c0 -5 -4 -10 -10 -10 -5 0 -10 5 -10 10 0 6 5 10
10 10 6 0 10 -4 10 -10z m-113 -105 c2 -13 0 -26 -4 -28 -5 -3 -9 10 -9 29 0
37 8 37 13 -1z m-2687 -19 c0 -9 -30 -14 -35 -6 -4 6 3 10 14 10 12 0 21 -2
21 -4z m2678 -51 c-1 -14 -8 -25 -14 -25 -6 0 -11 11 -11 25 0 14 5 25 13 25
9 0 13 -10 12 -25z m-188 -843 c0 -21 -27 -63 -49 -76 -23 -14 -112 -15 -108
-2 2 6 28 23 58 37 30 15 61 34 68 43 18 21 31 20 31 -2z m-214 -119 c-10 -10
-19 5 -10 18 6 11 8 11 12 0 2 -7 1 -15 -2 -18z m-74 -457 c7 4 8 2 4 -4 -11
-19 -36 -14 -36 6 0 27 14 37 18 13 2 -12 8 -18 14 -15z m-294 -27 c-2 -6 -8
-10 -13 -10 -5 0 -11 4 -13 10 -2 6 4 11 13 11 9 0 15 -5 13 -11z m365 -54 c3
-16 0 -24 -7 -22 -14 4 -21 47 -8 47 5 0 12 -11 15 -25z m-683 5 c0 -5 -7 -10
-16 -10 -8 0 -12 5 -9 10 3 6 10 10 16 10 5 0 9 -4 9 -10z m195 -48 c0 -18
-20 -15 -23 4 -3 10 1 15 10 12 7 -3 13 -10 13 -16z m-85 -17 c0 -8 -4 -15
-10 -15 -5 0 -10 7 -10 15 0 8 5 15 10 15 6 0 10 -7 10 -15z m161 -48 c28 -19
35 -30 37 -65 2 -24 -3 -56 -12 -73 -13 -27 -14 -46 -5 -133 10 -98 6 -228
-11 -311 l-8 -40 -2 40 c-1 30 -3 35 -9 20 -4 -11 -4 -35 0 -55 11 -44 11 -58
1 -44 -8 13 -62 25 -62 14 0 -4 -16 -7 -35 -7 -34 0 -35 2 -35 38 0 21 -5 50
-11 66 -10 27 -16 106 -19 258 -2 91 -2 95 9 95 4 0 10 -44 13 -98 3 -54 8
-104 12 -110 4 -7 31 -12 61 -12 52 0 55 1 70 34 15 32 15 40 1 96 -19 74 -20
102 -3 119 10 10 9 15 -3 24 -8 7 -24 29 -34 50 -11 20 -23 37 -28 37 -4 0
-17 9 -29 21 l-20 20 30 12 c17 6 31 15 31 19 0 15 27 8 61 -15z m-151 -54 c0
-28 -5 -46 -14 -49 -8 -3 -16 -18 -20 -35 -12 -63 -56 -22 -56 53 0 36 5 47
32 70 41 33 58 22 58 -39z m705 -141 c-1 -2 -14 -5 -28 -7 -16 -3 -27 0 -31
10 -3 9 0 15 9 15 8 0 12 6 9 14 -3 8 -12 12 -20 9 -15 -5 -19 8 -7 21 7 6 74
-55 68 -62z m-25 -32 c0 -5 -5 -10 -11 -10 -5 0 -7 5 -4 10 3 6 8 10 11 10 2
0 4 -4 4 -10z m275 -191 c-4 -12 -3 -19 2 -16 4 3 17 -1 28 -9 18 -13 18 -14
-8 -12 -27 2 -44 28 -32 48 11 18 17 11 10 -11z m-855 -344 c0 -19 -11 -24
-43 -18 -15 3 -27 12 -27 20 0 8 4 12 8 9 4 -2 14 -1 22 4 17 10 40 2 40 -15z"/>
<path d="M4240 4265 c7 -8 17 -15 22 -15 6 0 5 7 -2 15 -7 8 -17 15 -22 15 -6
0 -5 -7 2 -15z"/>
<path d="M3255 3940 c-3 -5 -1 -10 4 -10 6 0 11 5 11 10 0 6 -2 10 -4 10 -3 0
-8 -4 -11 -10z"/>
<path d="M3577 465 c-20 -41 -21 -49 -7 -40 6 3 10 0 11 -7 1 -7 5 7 10 31 11
56 7 60 -14 16z"/>
<path d="M3476 427 c3 -10 9 -15 12 -12 3 3 0 11 -7 18 -10 9 -11 8 -5 -6z"/>
<path d="M3542 330 c0 -14 2 -19 5 -12 2 6 2 18 0 25 -3 6 -5 1 -5 -13z"/>
<path d="M3541 284 c0 -11 3 -14 6 -6 3 7 2 16 -1 19 -3 4 -6 -2 -5 -13z"/>
<path d="M4623 3763 c-13 -2 -23 -10 -23 -17 0 -8 9 -12 23 -9 13 3 24 11 24
19 0 8 -1 13 -1 13 -1 -1 -11 -4 -23 -6z"/>
<path d="M4586 3581 c-16 -6 -17 -9 -5 -13 8 -3 23 0 34 8 21 16 5 18 -29 5z"/>
<path d="M1569 2374 c-19 -20 -82 -82 -141 -138 -61 -57 -108 -110 -108 -120
0 -17 2 -17 24 -3 20 13 27 14 41 3 17 -12 17 -15 1 -47 -28 -53 -55 -141 -56
-174 0 -17 5 -46 11 -65 6 -19 15 -57 20 -85 4 -27 13 -79 20 -115 6 -36 13
-122 14 -192 2 -69 5 -130 8 -135 3 -4 8 -51 12 -103 4 -52 11 -102 16 -110 8
-16 32 -195 34 -260 1 -19 5 -51 8 -70 3 -19 11 -73 18 -120 6 -47 18 -110 26
-140 9 -30 19 -83 24 -117 4 -34 14 -76 22 -95 8 -18 17 -51 21 -73 9 -50 55
-186 68 -202 6 -7 32 -13 60 -13 l49 0 -6 48 c-4 26 -12 65 -17 87 -6 22 -14
92 -18 155 -19 266 -31 431 -40 530 -6 58 -11 116 -11 130 -1 41 -20 253 -25
278 -4 22 -44 33 -44 11 0 -6 -10 -19 -22 -28 -21 -17 -21 -19 -5 -58 19 -48
7 -81 -17 -48 -26 33 -41 141 -23 163 7 9 7 20 -1 35 -23 49 -32 120 -36 299
-3 104 -7 191 -10 196 -2 4 -23 7 -45 5 -48 -2 -51 5 -15 36 24 21 26 22 39 5
12 -17 14 -15 28 19 9 20 16 45 16 54 -1 27 21 106 32 119 6 7 13 39 16 71 3
32 9 63 13 68 12 16 50 171 50 205 0 39 -10 38 -51 -6z m66 -1281 c3 -24 4
-47 1 -50 -9 -10 -26 8 -26 28 0 11 -5 29 -10 40 -13 23 -5 40 14 33 8 -3 17
-26 21 -51z m-5 -123 c0 -5 -4 -10 -10 -10 -5 0 -10 5 -10 10 0 6 5 10 10 10
6 0 10 -4 10 -10z"/>
<path d="M4740 1923 c0 -10 13 -78 29 -153 16 -74 36 -178 46 -230 18 -102 57
-201 134 -335 54 -96 50 -90 57 -83 3 4 0 17 -7 30 -26 49 -72 186 -84 253
-14 80 -35 141 -80 240 -18 39 -40 112 -49 165 -9 52 -19 103 -22 113 -7 22
-24 22 -24 0z"/>
<path d="M1660 1746 c0 -14 5 -26 10 -26 6 0 10 9 10 19 0 11 -4 23 -10 26 -6
4 -10 -5 -10 -19z"/>
<path d="M1254 1728 c-4 -6 -11 -28 -15 -47 -4 -20 -17 -71 -30 -115 -21 -75
-21 -81 -6 -125 53 -155 72 -201 85 -206 13 -5 14 11 8 123 -5 86 -3 137 4
157 8 22 8 40 0 70 -6 22 -12 63 -14 90 -2 28 -4 53 -5 58 -2 11 -19 8 -27 -5z"/>
<path d="M4933 1733 c-35 -14 11 -167 88 -294 43 -72 64 -83 102 -55 25 20 22
30 -32 85 -50 51 -101 157 -101 211 -1 43 -26 66 -57 53z"/>
<path d="M5040 1656 c0 -2 8 -10 18 -17 15 -13 16 -12 3 4 -13 16 -21 21 -21
13z"/>
<path d="M1080 1540 c-27 -53 -41 -116 -47 -217 -5 -79 -4 -83 16 -83 23 0 27
10 36 110 10 99 15 128 31 158 18 36 18 72 -1 72 -8 0 -24 -18 -35 -40z"/>
<path d="M1695 1530 c-3 -5 -1 -10 4 -10 6 0 11 5 11 10 0 6 -2 10 -4 10 -3 0
-8 -4 -11 -10z"/>
<path d="M1696 1481 c-3 -5 1 -24 9 -42 l14 -34 1 37 c0 36 -13 57 -24 39z"/>
<path d="M4197 1473 c-4 -3 -7 -15 -7 -26 0 -20 0 -20 -21 -1 -21 19 -21 19
-18 -6 3 -17 11 -26 28 -28 33 -5 48 12 30 34 -12 16 -12 17 5 11 16 -6 17 -5
6 8 -14 17 -14 17 -23 8z"/>
<path d="M4153 1375 c0 -5 -4 -18 -8 -27 -5 -12 -3 -18 6 -18 20 1 49 25 49
41 0 16 -46 20 -47 4z"/>
<path d="M3945 1321 c-9 -31 2 -41 41 -36 25 3 34 0 34 -10 0 -8 4 -15 9 -15
5 0 16 -3 25 -6 11 -4 16 -1 16 10 0 12 -47 44 -112 74 -3 2 -9 -6 -13 -17z"/>
<path d="M1723 1274 c-2 -7 0 -20 5 -30 8 -14 11 -12 19 13 9 24 8 30 -4 30
-8 0 -17 -6 -20 -13z"/>
<path d="M2652 1270 c15 -23 28 -26 28 -6 0 8 -7 17 -16 20 -24 9 -25 8 -12
-14z"/>
<path d="M4135 1270 c3 -5 11 -10 16 -10 6 0 7 5 4 10 -3 6 -11 10 -16 10 -6
0 -7 -4 -4 -10z"/>
<path d="M4090 1251 c0 -5 5 -13 10 -16 6 -3 10 -2 10 4 0 5 -4 13 -10 16 -5
3 -10 2 -10 -4z"/>
<path d="M4122 1225 c-7 -14 -8 -25 -2 -25 5 0 7 -8 4 -17 -5 -14 -4 -15 4 -4
6 8 17 11 26 8 14 -6 15 -4 4 16 -7 12 -12 25 -13 29 -1 19 -13 15 -23 -7z"/>
<path d="M2480 1215 c-17 -20 -5 -32 15 -15 13 10 15 9 15 -9 0 -11 5 -21 10
-21 14 0 12 22 -4 43 -16 21 -20 21 -36 2z"/>
<path d="M1121 1183 c0 -12 -5 -25 -11 -28 -5 -3 -10 -21 -9 -38 l0 -32 15 40
c8 22 13 49 11 60 -4 18 -4 18 -6 -2z"/>
<path d="M2967 1188 c-3 -9 1 -22 9 -29 9 -7 22 -26 30 -42 9 -16 18 -26 21
-23 7 7 -17 66 -27 66 -4 0 -11 10 -17 22 -8 18 -10 19 -16 6z"/>
<path d="M2660 1171 c0 -5 7 -12 16 -15 22 -9 24 -8 18 9 -7 16 -34 21 -34 6z"/>
<path d="M1262 1099 c-16 -35 -47 -92 -70 -127 -22 -35 -46 -80 -53 -100 -6
-20 -17 -46 -24 -57 -20 -33 -34 -84 -58 -220 -13 -71 -22 -149 -19 -173 2
-23 -1 -55 -7 -70 -6 -15 -13 -67 -16 -117 -5 -89 -11 -154 -21 -208 l-6 -27
76 0 c72 0 76 1 82 25 3 14 3 36 0 50 -6 22 -2 27 24 36 16 6 30 15 30 19 0
15 31 20 52 9 20 -11 20 -11 -2 -31 -19 -18 -20 -22 -7 -36 9 -8 22 -12 31 -9
23 9 11 55 -38 157 -38 79 -41 91 -39 161 1 83 12 113 51 143 23 19 24 23 18
95 -3 42 -11 92 -16 111 -13 45 -13 207 0 215 6 3 10 17 10 31 0 13 9 44 21
68 20 43 28 100 16 112 -3 3 -19 -22 -35 -57z"/>
<path d="M2545 1150 c3 -5 8 -10 11 -10 2 0 4 5 4 10 0 6 -5 10 -11 10 -5 0
-7 -4 -4 -10z"/>
<path d="M2500 1140 c0 -5 5 -10 11 -10 5 0 7 5 4 10 -3 6 -8 10 -11 10 -2 0
-4 -4 -4 -10z"/>
<path d="M2670 1120 c0 -5 5 -10 10 -10 6 0 10 5 10 10 0 6 -4 10 -10 10 -5 0
-10 -4 -10 -10z"/>
<path d="M2610 1091 c0 -6 5 -13 10 -16 6 -3 10 1 10 9 0 9 -4 16 -10 16 -5 0
-10 -4 -10 -9z"/>
<path d="M2585 1071 c-3 -5 -1 -12 5 -16 5 -3 10 1 10 9 0 18 -6 21 -15 7z"/>
<path d="M3000 1050 c0 -5 7 -7 15 -4 8 4 15 8 15 10 0 2 -7 4 -15 4 -8 0 -15
-4 -15 -10z"/>
<path d="M2956 1034 c-8 -22 1 -31 16 -16 9 9 9 15 1 23 -7 7 -12 5 -17 -7z"/>
<path d="M5030 1044 c0 -6 16 -60 35 -120 19 -60 35 -125 35 -144 0 -19 -14
-84 -31 -143 l-32 -108 22 -40 c12 -21 20 -43 16 -49 -3 -5 3 -30 15 -54 11
-25 20 -47 20 -50 0 -3 10 -16 23 -29 12 -14 30 -35 39 -48 16 -22 19 -23 28
-6 25 40 31 16 24 -88 -5 -75 -3 -113 6 -135 12 -28 16 -30 64 -30 l51 0 -1
82 c-2 82 -13 160 -34 228 -5 19 -10 52 -10 73 0 21 -5 47 -11 58 -6 11 -12
42 -14 68 -5 50 -15 78 -83 221 -22 47 -44 99 -48 115 -4 17 -13 37 -20 45 -7
9 -24 40 -38 70 -26 58 -55 102 -56 84z"/>
<path d="M2660 1030 c0 -5 5 -10 11 -10 5 0 7 5 4 10 -3 6 -8 10 -11 10 -2 0
-4 -4 -4 -10z"/>
<path d="M2744 998 c3 -17 6 -37 6 -44 0 -17 16 -19 18 -1 1 6 4 24 7 38 6 21
3 27 -15 32 -20 5 -22 3 -16 -25z"/>
<path d="M2858 1012 c-10 -2 -18 -9 -18 -17 0 -7 -7 -18 -15 -25 -12 -10 -15
-9 -15 5 0 14 -3 15 -15 5 -9 -7 -15 -29 -15 -54 0 -59 -9 -83 -32 -89 -13 -4
-18 -12 -16 -24 2 -12 -5 -22 -23 -29 -16 -7 -28 -22 -31 -38 -3 -14 -3 -26 0
-26 15 0 120 120 119 136 -1 13 4 18 15 16 18 -3 43 32 33 48 -3 6 -13 10 -21
10 -8 0 -14 5 -14 10 0 6 10 8 23 5 18 -5 26 -1 35 17 l13 23 -5 -23 c-4 -22
-3 -23 17 -9 30 19 34 47 9 47 -11 0 -22 4 -24 8 -1 4 -11 6 -20 4z"/>
<path d="M3077 941 c-31 -31 -57 -60 -57 -64 0 -4 9 -16 20 -27 22 -22 25 -38
10 -60 -9 -13 -13 -12 -30 9 -11 13 -20 29 -20 37 0 24 -20 16 -55 -23 -27
-29 -35 -47 -35 -75 0 -33 3 -37 23 -35 19 2 22 -3 23 -33 1 -54 3 -57 24 -63
16 -4 20 0 20 19 0 13 5 24 12 24 7 0 22 12 35 26 29 34 43 23 43 -33 0 -29 8
-58 21 -80 23 -36 19 -74 -5 -54 -13 11 -26 6 -26 -10 0 -4 11 -20 25 -35 27
-29 33 -72 13 -92 -9 -9 -8 -15 7 -25 13 -10 16 -21 11 -40 -3 -14 -2 -36 3
-50 7 -19 5 -28 -10 -40 -10 -9 -19 -13 -19 -8 0 5 -7 12 -16 15 -11 4 -14 1
-12 -12 2 -10 12 -17 27 -17 32 0 50 -29 34 -54 -11 -17 -9 -19 12 -16 20 2
25 -2 25 -19 1 -13 6 -6 15 19 8 22 15 41 15 43 0 1 4 2 10 2 5 0 13 -12 16
-26 5 -19 12 -24 25 -21 14 4 19 0 20 -16 0 -21 1 -21 10 2 7 18 12 22 21 13
12 -12 16 -33 17 -89 1 -28 5 -33 26 -33 28 0 30 8 14 65 -6 22 -13 63 -15 90
-2 28 -8 77 -13 110 -6 33 -11 83 -12 110 -1 28 -7 61 -14 75 -6 14 -12 46
-13 71 -1 25 -6 58 -12 73 -5 15 -10 37 -10 48 0 12 -8 40 -18 62 -24 54 -43
105 -49 136 -3 14 -10 30 -15 37 -6 7 -22 37 -37 67 l-26 54 -58 -57z m80 -56
c3 -9 3 -19 -1 -22 -7 -8 -56 17 -56 29 0 15 50 8 57 -7z m48 -165 c24 -27 9
-43 -36 -38 -26 2 -35 8 -37 25 -3 20 8 28 44 32 6 0 19 -8 29 -19z m49 -96
c9 -22 -11 -44 -40 -44 -13 0 -27 -8 -33 -17 -9 -17 -10 -17 -17 2 -4 11 -14
28 -21 37 -23 26 -7 38 52 38 40 0 54 -4 59 -16z m6 -151 c5 -4 6 -20 3 -34
-4 -20 -10 -25 -23 -22 -15 4 -20 -4 -28 -43 -13 -61 -2 -94 33 -94 18 0 25 5
25 20 0 11 3 20 6 20 16 0 29 -29 29 -65 l0 -40 -45 -5 c-72 -8 -79 6 -85 156
l-5 127 41 -6 c23 -3 45 -9 49 -14z m-60 -318 c0 -12 -19 -12 -23 0 -4 9 -1
12 9 8 7 -3 14 -7 14 -8z"/>
<path d="M2430 979 c0 -5 5 -7 10 -4 6 3 10 8 10 11 0 2 -4 4 -10 4 -5 0 -10
-5 -10 -11z"/>
<path d="M3751 956 c-8 -10 -9 -16 -2 -21 14 -8 53 13 46 26 -9 13 -31 11 -44
-5z"/>
<path d="M4260 961 c0 -5 5 -13 10 -16 6 -3 10 -2 10 4 0 5 -4 13 -10 16 -5 3
-10 2 -10 -4z"/>
<path d="M1755 910 c-8 -14 4 -70 15 -70 15 0 22 38 10 60 -12 23 -16 24 -25
10z"/>
<path d="M3735 859 c-7 -22 5 -43 12 -21 3 6 11 12 19 12 8 0 14 7 14 15 0 23
-38 18 -45 -6z"/>
<path d="M1765 770 c7 -50 9 -55 25 -45 7 4 8 11 2 18 -5 7 -14 26 -21 42 -10
28 -11 27 -6 -15z"/>
<path d="M2575 769 c-6 -28 -1 -48 10 -37 3 2 8 19 11 36 8 42 -12 43 -21 1z"/>
<path d="M2530 780 c0 -5 5 -10 11 -10 5 0 7 5 4 10 -3 6 -8 10 -11 10 -2 0
-4 -4 -4 -10z"/>
<path d="M3720 764 c0 -8 5 -12 10 -9 6 3 10 10 10 16 0 5 -4 9 -10 9 -5 0
-10 -7 -10 -16z"/>
<path d="M2510 750 c0 -11 -5 -17 -13 -15 -8 4 -13 -5 -13 -24 -2 -37 23 -50
35 -18 21 55 22 65 6 71 -10 4 -15 -1 -15 -14z"/>
<path d="M2880 724 c0 -8 5 -12 10 -9 6 3 10 10 10 16 0 5 -4 9 -10 9 -5 0
-10 -7 -10 -16z"/>
<path d="M3766 732 c-3 -5 1 -15 9 -22 16 -14 20 -3 6 19 -5 8 -11 9 -15 3z"/>
<path d="M2623 705 c-7 -7 -17 -15 -23 -17 -6 -2 -8 -11 -5 -21 6 -15 9 -14
27 8 21 26 22 52 1 30z"/>
<path d="M1771 619 c-1 -49 3 -88 7 -85 5 3 8 22 8 43 -1 21 3 41 8 44 5 4 5
15 1 25 -4 11 -7 29 -6 42 1 12 -2 22 -7 22 -6 0 -11 -39 -11 -91z"/>
<path d="M3716 686 c-8 -31 -1 -45 14 -30 7 7 7 20 2 34 l-9 24 -7 -28z"/>
<path d="M2386 654 c-8 -22 -8 -26 3 -20 5 4 12 0 14 -6 3 -7 6 -3 6 9 1 27
-15 39 -23 17z"/>
<path d="M3852 639 c-7 -11 -10 -24 -7 -29 3 -4 0 -10 -6 -12 -15 -5 6 -48 24
-48 8 0 8 3 -2 9 -7 5 -10 14 -7 20 4 6 12 9 17 5 5 -3 8 10 5 31 -6 46 -9 49
-24 24z"/>
<path d="M3769 606 c-15 -32 -25 -33 -33 -3 -5 17 -8 19 -15 8 -15 -23 8 -48
43 -47 20 1 30 6 28 14 -2 10 2 10 18 2 27 -14 25 -7 -5 26 l-24 26 -12 -26z"/>
<path d="M2528 598 c-2 -13 -6 -22 -11 -20 -4 1 -20 -4 -36 -12 -16 -9 -31
-13 -34 -10 -3 3 -8 1 -11 -4 -3 -5 3 -12 15 -15 12 -3 22 0 26 9 3 8 18 14
33 14 17 0 30 7 34 18 3 9 9 23 12 30 3 7 -1 12 -9 12 -9 0 -17 -10 -19 -22z"/>
<path d="M4153 605 c-3 -9 -3 -18 -1 -21 3 -3 8 4 11 16 6 23 -1 27 -10 5z"/>
<path d="M4191 586 c-9 -23 -9 -31 1 -38 22 -13 31 -9 17 9 -10 11 -10 14 -1
9 14 -8 14 0 2 29 -7 18 -9 18 -19 -9z"/>
<path d="M4435 600 c3 -5 8 -10 11 -10 2 0 4 5 4 10 0 6 -5 10 -11 10 -5 0 -7
-4 -4 -10z"/>
<path d="M2625 574 c-9 -15 -12 -23 -6 -20 11 7 35 46 28 46 -3 0 -12 -12 -22
-26z"/>
<path d="M4780 579 c0 -13 5 -31 10 -39 7 -11 9 -6 6 18 -4 39 -16 55 -16 21z"/>
<path d="M2705 580 c-3 -5 -1 -10 4 -10 6 0 11 5 11 10 0 6 -2 10 -4 10 -3 0
-8 -4 -11 -10z"/>
<path d="M2341 558 c-5 -13 -6 -27 -2 -33 3 -5 7 0 9 13 2 12 8 22 13 22 5 0
9 5 9 10 0 19 -21 10 -29 -12z"/>
<path d="M2655 539 c-11 -17 1 -21 15 -4 8 9 8 15 2 15 -6 0 -14 -5 -17 -11z"/>
<path d="M2730 534 c0 -8 5 -12 10 -9 6 4 8 11 5 16 -9 14 -15 11 -15 -7z"/>
<path d="M3865 529 c-4 -6 -5 -12 -2 -15 2 -3 7 2 10 11 7 17 1 20 -8 4z"/>
<path d="M2386 498 c-27 -26 -27 -28 -7 -28 11 0 21 5 21 11 0 7 7 17 17 24 9
7 12 14 7 16 -5 3 -22 -8 -38 -23z"/>
<path d="M4243 515 c-3 -9 -3 -18 -1 -21 3 -3 8 4 11 16 6 23 -1 27 -10 5z"/>
<path d="M4190 510 c0 -5 5 -10 11 -10 5 0 7 5 4 10 -3 6 -8 10 -11 10 -2 0
-4 -4 -4 -10z"/>
<path d="M1770 481 c0 -22 4 -31 13 -28 13 4 11 36 -4 52 -5 5 -9 -4 -9 -24z"/>
<path d="M3905 490 c-18 -20 -17 -20 12 -20 37 0 46 8 28 26 -17 18 -18 18
-40 -6z"/>
<path d="M3000 491 c0 -5 5 -13 10 -16 6 -3 10 -2 10 4 0 5 -4 13 -10 16 -5 3
-10 2 -10 -4z"/>
<path d="M3722 475 c-8 -18 -8 -25 -1 -25 6 0 9 -6 6 -12 -2 -7 -1 -22 3 -33
4 -11 4 -25 -1 -31 -5 -6 -6 -19 -3 -28 5 -13 9 -14 20 -5 16 13 19 33 4 24
-12 -8 -13 5 0 25 6 9 5 17 -3 22 -9 6 -9 12 1 28 8 14 9 20 1 20 -6 0 -9 7
-6 15 10 25 -10 25 -21 0z"/>
<path d="M3783 467 c-1 -11 5 -29 14 -41 l15 -21 -5 23 c-3 12 1 28 9 36 11
12 10 14 -9 18 -17 3 -23 0 -24 -15z"/>
<path d="M3846 474 c-3 -8 -1 -14 4 -14 6 0 10 -11 10 -24 0 -14 5 -28 10 -31
6 -4 10 10 10 33 0 41 -23 65 -34 36z"/>
<path d="M4234 473 c4 -7 2 -13 -4 -13 -6 0 -8 -5 -4 -11 4 -8 9 -8 17 0 8 8
7 14 -2 24 -11 10 -13 10 -7 0z"/>
<path d="M2164 451 c3 -5 -1 -14 -9 -21 -16 -13 -20 -30 -7 -30 4 0 15 14 24
30 15 26 15 30 2 30 -8 0 -13 -4 -10 -9z"/>
<path d="M2355 450 c-3 -5 -1 -10 4 -10 6 0 11 5 11 10 0 6 -2 10 -4 10 -3 0
-8 -4 -11 -10z"/>
<path d="M2537 443 c-12 -11 -8 -23 8 -23 8 0 15 7 15 15 0 16 -12 20 -23 8z"/>
<path d="M4110 441 c0 -5 7 -11 14 -14 10 -4 13 -1 9 9 -6 15 -23 19 -23 5z"/>
<path d="M1780 409 c0 -27 2 -30 15 -19 11 9 12 17 4 31 -14 27 -19 24 -19
-12z"/>
<path d="M2275 408 c-25 -17 -26 -19 -7 -15 26 6 27 4 6 -17 -21 -22 -2 -20
22 2 18 16 29 53 15 51 -3 0 -19 -10 -36 -21z"/>
<path d="M2011 384 c-12 -14 -11 -15 8 -12 12 1 22 7 22 13 1 16 -15 15 -30
-1z"/>
<path d="M3845 379 c-19 -9 -18 -9 3 -5 12 2 22 0 22 -5 0 -5 5 -9 11 -9 13 0
7 23 -7 26 -5 1 -18 -2 -29 -7z"/>
<path d="M2376 364 c-11 -8 -16 -14 -10 -14 13 0 39 18 34 24 -3 2 -14 -2 -24
-10z"/>
<path d="M4457 360 c-3 -11 -1 -20 4 -20 5 0 9 2 9 4 0 2 3 11 6 20 3 9 2 16
-4 16 -5 0 -12 -9 -15 -20z"/>
<path d="M1792 333 c-1 -24 2 -43 7 -43 16 0 19 25 7 55 l-13 30 -1 -42z"/>
<path d="M2207 355 c-8 -8 -16 -13 -18 -11 -2 1 -12 -6 -21 -16 -14 -14 -15
-18 -4 -18 8 0 18 5 21 10 4 6 10 8 15 5 12 -7 51 26 44 37 -8 12 -21 10 -37
-7z"/>
<path d="M2438 352 c-9 -9 -28 -25 -42 -35 -24 -17 -39 -46 -16 -32 6 3 10 1
10 -4 0 -6 -5 -11 -10 -11 -6 0 -10 -8 -8 -17 2 -12 -9 -20 -37 -29 -70 -22
-225 -115 -225 -135 0 -5 -25 -24 -55 -44 -30 -21 -55 -39 -55 -41 0 -2 19 -4
43 -4 37 0 44 4 60 32 l18 32 27 -32 c23 -27 35 -32 71 -32 36 0 42 3 37 17
-6 16 -5 16 12 0 16 -15 40 -17 166 -16 83 0 146 5 146 10 0 5 -12 28 -27 50
-33 50 -62 125 -77 202 -6 32 -15 55 -19 51 -4 -4 -7 2 -7 12 0 11 5 25 12 32
7 7 8 12 3 11 -6 0 -17 -8 -27 -17z m-128 -222 c0 -26 -3 -30 -29 -30 -15 0
-43 -5 -61 -11 -26 -9 -34 -9 -41 2 -16 26 46 68 104 69 23 0 27 -4 27 -30z
m15 -100 c3 -6 -1 -7 -9 -4 -18 7 -21 14 -7 14 6 0 13 -4 16 -10z"/>
<path d="M4395 350 c-3 -5 -1 -10 4 -10 6 0 11 5 11 10 0 6 -2 10 -4 10 -3 0
-8 -4 -11 -10z"/>
<path d="M3880 335 c0 -8 2 -15 4 -15 2 0 6 7 10 15 3 8 1 15 -4 15 -6 0 -10
-7 -10 -15z"/>
<path d="M4565 310 c-3 -5 -1 -10 4 -10 6 0 11 5 11 10 0 6 -2 10 -4 10 -3 0
-8 -4 -11 -10z"/>
<path d="M3874 283 c1 -17 6 -31 11 -30 6 1 9 -4 8 -10 -2 -7 2 -13 7 -13 6 0
10 4 10 9 0 5 3 17 7 27 4 11 3 15 -4 11 -7 -5 -9 1 -5 15 5 20 3 21 -10 10
-13 -10 -17 -10 -21 0 -2 7 -4 -1 -3 -19z"/>
<path d="M2136 280 c-10 -11 -22 -18 -26 -17 -5 1 -21 -12 -37 -29 -15 -17
-38 -35 -50 -38 -25 -8 -27 -14 -14 -35 8 -12 12 -12 25 -2 9 8 16 18 16 23 0
15 53 68 67 68 7 0 13 4 13 9 0 5 11 12 25 15 14 4 25 11 25 16 0 16 -23 10
-44 -10z"/>
<path d="M3728 275 c-6 -28 0 -31 27 -12 10 8 15 19 11 25 -12 20 -33 13 -38
-13z"/>
<path d="M4468 283 c-10 -2 -18 -8 -18 -13 0 -4 9 -6 20 -3 11 3 20 9 20 14 0
5 -1 8 -2 8 -2 -1 -11 -3 -20 -6z"/>
<path d="M4580 283 c0 -5 7 -16 14 -26 12 -16 14 -16 20 -1 3 9 4 20 0 25 -6
11 -34 12 -34 2z"/>
<path d="M3810 269 c0 -5 5 -7 10 -4 6 3 10 8 10 11 0 2 -4 4 -10 4 -5 0 -10
-5 -10 -11z"/>
<path d="M4627 253 c-4 -3 -7 -11 -7 -17 0 -6 5 -5 12 2 6 6 9 14 7 17 -3 3
-9 2 -12 -2z"/>
<path d="M1807 223 c-9 -21 -9 -27 1 -31 7 -2 12 -24 12 -60 l1 -57 16 30 c10
19 12 30 5 33 -7 2 -9 15 -6 31 3 16 1 31 -4 35 -6 3 -8 15 -5 26 8 29 -5 25
-20 -7z"/>
<path d="M4515 240 c-8 -12 2 -30 17 -30 7 0 7 4 -1 13 -6 8 -8 17 -4 20 3 4
4 7 0 7 -3 0 -9 -4 -12 -10z"/>
<path d="M3748 223 c-18 -5 -20 -8 -20 -43 0 -39 3 -45 13 -22 5 13 12 21 17
18 4 -2 9 9 10 25 1 16 1 28 0 28 -2 -1 -11 -3 -20 -6z"/>
<path d="M4275 220 c-3 -5 -1 -10 4 -10 6 0 11 5 11 10 0 6 -2 10 -4 10 -3 0
-8 -4 -11 -10z"/>
<path d="M3925 199 c-4 -12 -3 -25 2 -29 4 -5 8 4 9 21 1 34 -2 37 -11 8z"/>
<path d="M2140 175 c-13 -14 -19 -25 -13 -25 12 0 48 38 41 45 -2 3 -15 -6
-28 -20z"/>
<path d="M1985 150 c3 -5 -6 -12 -20 -16 -14 -3 -25 -10 -25 -15 0 -12 13 -11
42 4 23 12 28 37 7 37 -6 0 -7 -4 -4 -10z"/>
<path d="M3912 134 c2 -15 8 -29 13 -31 16 -5 13 32 -3 46 -11 11 -13 9 -10
-15z"/>
<path d="M3832 115 c-1 -19 2 -23 20 -20 25 5 34 13 24 22 -4 4 -11 1 -16 -7
-8 -13 -10 -12 -10 2 0 27 -16 29 -18 3z"/>
<path d="M3731 87 c-8 -12 -10 -19 -6 -15 4 4 14 0 23 -8 14 -14 17 -14 28 8
14 26 14 27 -13 32 -12 3 -24 -4 -32 -17z"/>
<path d="M1930 90 c0 -5 -12 -16 -27 -24 -25 -14 -26 -15 -7 -16 12 0 24 7 28
15 3 8 12 15 21 15 8 0 15 5 15 10 0 6 -7 10 -15 10 -8 0 -15 -4 -15 -10z"/>
<path d="M2003 44 l-48 -46 53 42 c48 38 59 50 48 50 -2 0 -26 -21 -53 -46z"/>
<path d="M1800 61 c0 -5 7 -11 14 -14 10 -4 13 -1 9 9 -6 15 -23 19 -23 5z"/>
<path d="M4220 60 c0 -5 5 -10 10 -10 6 0 10 5 10 10 0 6 -4 10 -10 10 -5 0
-10 -4 -10 -10z"/>
<path d="M3173 34 c-3 -7 -9 -11 -14 -8 -5 3 -6 -2 -3 -10 5 -12 22 -16 71
-16 41 0 62 4 58 10 -4 6 -11 7 -17 4 -6 -4 -13 -3 -17 2 -3 5 -21 14 -39 21
-27 10 -34 9 -39 -3z"/>
<path d="M3925 31 c-3 -6 -11 -9 -16 -6 -5 4 -9 2 -9 -4 0 -6 -7 -8 -15 -5 -8
4 -15 1 -15 -5 0 -16 39 -13 57 4 8 9 13 18 10 21 -3 3 -8 0 -12 -5z"/>
<path d="M3976 25 c-9 -25 -7 -29 7 -16 8 6 17 7 22 3 4 -4 6 -1 3 7 -6 21
-25 24 -32 6z"/>
<path d="M1841 21 c-8 -6 -9 -11 -3 -15 6 -3 14 -1 17 5 9 14 2 20 -14 10z"/>
<path d="M3825 10 c-18 -8 -17 -9 8 -9 15 -1 27 4 27 9 0 12 -8 12 -35 0z"/>
<path d="M3945 10 c-3 -5 -1 -10 4 -10 6 0 11 5 11 10 0 6 -2 10 -4 10 -3 0
-8 -4 -11 -10z"/>
</g>
</svg>
